<?xml version="1.0" encoding="UTF-8" standalone="no"?>
<!-- Created with Inkscape (http://www.inkscape.org/) -->

<svg
   width="97.137405mm"
   height="35.572697mm"
   viewBox="0 0 97.137405 35.572697"
   version="1.1"
   id="svg1"
   xml:space="preserve"
   xmlns:xlink="http://www.w3.org/1999/xlink"
   xmlns="http://www.w3.org/2000/svg"
   xmlns:svg="http://www.w3.org/2000/svg"><defs
     id="defs1"><linearGradient
       id="linearGradient52"><stop
         style="stop-color:#a573bf;stop-opacity:0;"
         offset="0"
         id="stop49" /><stop
         style="stop-color:#7e4799;stop-opacity:1;"
         offset="0.30000001"
         id="stop50" /><stop
         style="stop-color:#b8382e;stop-opacity:1;"
         offset="0.69999999"
         id="stop51" /><stop
         style="stop-color:#d2554c;stop-opacity:0;"
         offset="1"
         id="stop52" /></linearGradient><linearGradient
       id="linearGradient34"><stop
         style="stop-color:#41b82d;stop-opacity:0;"
         offset="0"
         id="stop29" /><stop
         style="stop-color:#308721;stop-opacity:1;"
         offset="0.30000001"
         id="stop31" /><stop
         style="stop-color:#7e4799;stop-opacity:1;"
         offset="0.69999999"
         id="stop32" /><stop
         style="stop-color:#a573bf;stop-opacity:0;"
         offset="1"
         id="stop34" /></linearGradient><linearGradient
       xlink:href="#linearGradient34"
       id="linearGradient112"
       x1="58.335533"
       y1="58.584362"
       x2="94.694664"
       y2="58.584362"
       gradientUnits="userSpaceOnUse" /><linearGradient
       xlink:href="#linearGradient34"
       id="linearGradient118"
       x1="61.67252"
       y1="61.441601"
       x2="96.864441"
       y2="61.441601"
       gradientUnits="userSpaceOnUse" /><linearGradient
       xlink:href="#linearGradient34"
       id="linearGradient119"
       x1="57.575478"
       y1="62.100693"
       x2="93.637962"
       y2="62.100693"
       gradientUnits="userSpaceOnUse" /><linearGradient
       xlink:href="#linearGradient34"
       id="linearGradient120"
       x1="65.646957"
       y1="67.553223"
       x2="95.218987"
       y2="67.553223"
       gradientUnits="userSpaceOnUse" /><linearGradient
       xlink:href="#linearGradient34"
       id="linearGradient121"
       x1="62.411579"
       y1="69.759415"
       x2="94.452156"
       y2="69.759415"
       gradientUnits="userSpaceOnUse" /><linearGradient
       xlink:href="#linearGradient34"
       id="linearGradient122"
       x1="59.08149"
       y1="72.257011"
       x2="92.930672"
       y2="72.257011"
       gradientUnits="userSpaceOnUse" /><linearGradient
       xlink:href="#linearGradient34"
       id="linearGradient123"
       x1="62.390133"
       y1="73.270752"
       x2="97.494682"
       y2="73.270752"
       gradientUnits="userSpaceOnUse" /><linearGradient
       xlink:href="#linearGradient34"
       id="linearGradient124"
       x1="67.686234"
       y1="74.296463"
       x2="99.949127"
       y2="74.296463"
       gradientUnits="userSpaceOnUse" /><linearGradient
       xlink:href="#linearGradient34"
       id="linearGradient125"
       x1="65.315536"
       y1="75.984711"
       x2="94.622131"
       y2="75.984711"
       gradientUnits="userSpaceOnUse" /><linearGradient
       xlink:href="#linearGradient52"
       id="linearGradient202"
       x1="96.305359"
       y1="60.502274"
       x2="131.5004"
       y2="60.502274"
       gradientUnits="userSpaceOnUse" /><linearGradient
       xlink:href="#linearGradient52"
       id="linearGradient203"
       x1="98.883781"
       y1="64.254517"
       x2="134.49918"
       y2="64.254517"
       gradientUnits="userSpaceOnUse" /><linearGradient
       xlink:href="#linearGradient52"
       id="linearGradient204"
       x1="93.927231"
       y1="63.469982"
       x2="127.87058"
       y2="63.469982"
       gradientUnits="userSpaceOnUse" /><linearGradient
       xlink:href="#linearGradient52"
       id="linearGradient205"
       x1="96.490318"
       y1="65.715416"
       x2="134.50111"
       y2="65.715416"
       gradientUnits="userSpaceOnUse" /><linearGradient
       xlink:href="#linearGradient52"
       id="linearGradient206"
       x1="96.131935"
       y1="68.812569"
       x2="128.07793"
       y2="68.812569"
       gradientUnits="userSpaceOnUse" /><linearGradient
       xlink:href="#linearGradient52"
       id="linearGradient207"
       x1="93.974266"
       y1="70.965408"
       x2="131.89606"
       y2="70.965408"
       gradientUnits="userSpaceOnUse" /><linearGradient
       xlink:href="#linearGradient52"
       id="linearGradient208"
       x1="98.454613"
       y1="71.570908"
       x2="128.14508"
       y2="71.570908"
       gradientUnits="userSpaceOnUse" /><linearGradient
       xlink:href="#linearGradient52"
       id="linearGradient209"
       x1="101.06959"
       y1="72.84362"
       x2="135.64626"
       y2="72.84362"
       gradientUnits="userSpaceOnUse" /><linearGradient
       xlink:href="#linearGradient52"
       id="linearGradient215"
       gradientUnits="userSpaceOnUse"
       x1="97.020454"
       y1="74.687401"
       x2="132.12462"
       y2="74.687401" /><linearGradient
       xlink:href="#linearGradient34"
       id="linearGradient29"
       x1="64.834084"
       y1="57.117435"
       x2="93.223534"
       y2="57.117435"
       gradientUnits="userSpaceOnUse" /><linearGradient
       xlink:href="#linearGradient34"
       id="linearGradient36"
       x1="62.099007"
       y1="57.922764"
       x2="101.18253"
       y2="57.922764"
       gradientUnits="userSpaceOnUse" /><linearGradient
       xlink:href="#linearGradient34"
       id="linearGradient37"
       x1="54.786091"
       y1="58.673973"
       x2="92.656265"
       y2="58.673973"
       gradientUnits="userSpaceOnUse" /><linearGradient
       xlink:href="#linearGradient34"
       id="linearGradient38"
       x1="53.612568"
       y1="61.484009"
       x2="100.45101"
       y2="61.484009"
       gradientUnits="userSpaceOnUse" /><linearGradient
       xlink:href="#linearGradient34"
       id="linearGradient39"
       x1="59.827316"
       y1="63.644119"
       x2="95.998795"
       y2="63.644119"
       gradientUnits="userSpaceOnUse" /><linearGradient
       xlink:href="#linearGradient34"
       id="linearGradient40"
       x1="66.968941"
       y1="64.795235"
       x2="92.200806"
       y2="64.795235"
       gradientUnits="userSpaceOnUse" /><linearGradient
       xlink:href="#linearGradient34"
       id="linearGradient41"
       x1="57.989983"
       y1="68.267197"
       x2="91.813744"
       y2="68.267197"
       gradientUnits="userSpaceOnUse" /><linearGradient
       xlink:href="#linearGradient34"
       id="linearGradient42"
       x1="55.267429"
       y1="70.655357"
       x2="90.874809"
       y2="70.655357"
       gradientUnits="userSpaceOnUse" /><linearGradient
       xlink:href="#linearGradient34"
       id="linearGradient43"
       x1="65.635574"
       y1="71.92524"
       x2="95.528358"
       y2="71.92524"
       gradientUnits="userSpaceOnUse" /><linearGradient
       xlink:href="#linearGradient34"
       id="linearGradient44"
       x1="61.380688"
       y1="75.090347"
       x2="103.0753"
       y2="75.090347"
       gradientUnits="userSpaceOnUse" /><linearGradient
       xlink:href="#linearGradient34"
       id="linearGradient45"
       x1="61.728451"
       y1="77.684479"
       x2="91.928574"
       y2="77.684479"
       gradientUnits="userSpaceOnUse" /><linearGradient
       xlink:href="#linearGradient34"
       id="linearGradient46"
       x1="67.752426"
       y1="77.591217"
       x2="88.69799"
       y2="77.591217"
       gradientUnits="userSpaceOnUse" /><linearGradient
       xlink:href="#linearGradient34"
       id="linearGradient47"
       x1="65.447693"
       y1="78.722382"
       x2="91.380821"
       y2="78.722382"
       gradientUnits="userSpaceOnUse" /><linearGradient
       xlink:href="#linearGradient52"
       id="linearGradient49"
       x1="93.338737"
       y1="57.409264"
       x2="124.51235"
       y2="57.409264"
       gradientUnits="userSpaceOnUse" /><linearGradient
       xlink:href="#linearGradient52"
       id="linearGradient54"
       x1="101.61057"
       y1="58.536251"
       x2="133.41817"
       y2="58.536251"
       gradientUnits="userSpaceOnUse" /><linearGradient
       xlink:href="#linearGradient52"
       id="linearGradient56"
       x1="92.941254"
       y1="60.838711"
       x2="130.26088"
       y2="60.838711"
       gradientUnits="userSpaceOnUse" /><linearGradient
       xlink:href="#linearGradient52"
       id="linearGradient58"
       x1="100.55506"
       y1="64.876282"
       x2="134.81891"
       y2="64.876282"
       gradientUnits="userSpaceOnUse" /><linearGradient
       xlink:href="#linearGradient52"
       id="linearGradient60"
       x1="96.480743"
       y1="64.478333"
       x2="125.8818"
       y2="64.478333"
       gradientUnits="userSpaceOnUse" /><linearGradient
       xlink:href="#linearGradient52"
       id="linearGradient62"
       x1="92.644318"
       y1="65.943024"
       x2="138.57471"
       y2="65.943024"
       gradientUnits="userSpaceOnUse" /><linearGradient
       xlink:href="#linearGradient52"
       id="linearGradient64"
       x1="92.161186"
       y1="68.379379"
       x2="137.65005"
       y2="68.379379"
       gradientUnits="userSpaceOnUse" /><linearGradient
       xlink:href="#linearGradient52"
       id="linearGradient66"
       x1="91.019264"
       y1="70.420151"
       x2="138.55257"
       y2="70.420151"
       gradientUnits="userSpaceOnUse" /><linearGradient
       xlink:href="#linearGradient52"
       id="linearGradient68"
       x1="95.860435"
       y1="71.840881"
       x2="134.39552"
       y2="71.840881"
       gradientUnits="userSpaceOnUse" /><linearGradient
       xlink:href="#linearGradient52"
       id="linearGradient70"
       x1="103.27126"
       y1="70.905479"
       x2="125.17222"
       y2="70.905479"
       gradientUnits="userSpaceOnUse" /><linearGradient
       xlink:href="#linearGradient52"
       id="linearGradient72"
       x1="92.166588"
       y1="74.278725"
       x2="131.67329"
       y2="74.278725"
       gradientUnits="userSpaceOnUse" /><linearGradient
       xlink:href="#linearGradient52"
       id="linearGradient73"
       x1="88.803978"
       y1="75.593323"
       x2="137.95448"
       y2="75.593323"
       gradientUnits="userSpaceOnUse" /><linearGradient
       xlink:href="#linearGradient52"
       id="linearGradient74"
       x1="91.475838"
       y1="76.820129"
       x2="127.50096"
       y2="76.820129"
       gradientUnits="userSpaceOnUse" /></defs><g
     id="layer1"
     transform="translate(-47.390336,-50.054305)"><path
       style="fill:#41b82d;fill-opacity:1;stroke:#308721;stroke-width:0.7;stroke-linejoin:round;stroke-dasharray:none;stroke-opacity:1"
       id="rect1"
       width="24.321339"
       height="34.866962"
       x="53.561169"
       y="50.408386"
       transform="translate(-5.8208336)"
       d="m 58.852835,50.408386 h 13.738006 a 5.2916667,5.2916667 45 0 1 5.291666,5.291667 v 24.283629 a 5.2916667,5.2916667 135 0 1 -5.291666,5.291667 H 58.852835 A 5.2916667,5.2916667 45 0 1 53.561169,79.983682 V 55.700053 a 5.2916667,5.2916667 135 0 1 5.291666,-5.291667 z" /><path
       style="fill:#a573bf;fill-opacity:1;stroke:#7e4799;stroke-width:0.7;stroke-linejoin:round;stroke-dasharray:none;stroke-opacity:1"
       id="rect1-3"
       width="24.321339"
       height="34.866962"
       x="53.561169"
       y="50.408386"
       transform="translate(30.23712)"
       d="m 58.852835,50.408386 h 13.738006 a 5.2916667,5.2916667 45 0 1 5.291666,5.291667 v 24.283629 a 5.2916667,5.2916667 135 0 1 -5.291666,5.291667 H 58.852835 A 5.2916667,5.2916667 45 0 1 53.561169,79.983682 V 55.700053 a 5.2916667,5.2916667 135 0 1 5.291666,-5.291667 z" /><path
       id="rect1-1"
       style="fill:#d2554c;stroke:#b8382e;stroke-width:0.7;stroke-linejoin:round"
       d="m 72.300781,50.408203 c -4.617631,0.0096 -9.235512,0.0112 -13.852969,0.03412 -1.590605,0.09238 -3.10204,0.990885 -3.980081,2.315048 -0.57667,0.848838 -0.883075,1.867442 -0.899746,2.891765 -0.02072,1.01615 5.04e-4,2.032845 -0.0074,3.049254 0.0013,7.127678 -0.0031,14.255547 0.0046,21.383105 0.03841,1.545326 0.765289,3.069915 1.988955,4.025098 0.882837,0.714151 1.99981,1.123831 3.1345,1.157223 0.989809,0.02644 1.980546,0.0033 2.970743,0.01157 3.708881,-0.0016 7.418051,0.0042 11.126747,-0.01046 1.706917,-0.05346 3.354181,-0.996332 4.260571,-2.444405 0.550009,-0.855878 0.833534,-1.870964 0.830412,-2.886951 0.01477,-2.369139 -0.0043,-4.738602 -0.0049,-7.107873 -0.01336,-4.136786 -0.0133,-8.273575 -0.0018,-12.410365 -5.95e-4,-1.653024 0.01277,-3.306401 0.0035,-4.959205 -0.07206,-1.943124 -1.318876,-3.789873 -3.099392,-4.575437 -0.772263,-0.349896 -1.627833,-0.50344 -2.473678,-0.472491 z"
       transform="translate(66.295078)" /><path
       style="fill:none;fill-opacity:1;stroke:url(#linearGradient118);stroke-width:0.3;stroke-linejoin:round;stroke-dasharray:none;stroke-opacity:1"
       d="m 61.672519,58.988557 c 1.400995,0 2.801963,0 4.088904,0.817697 1.28694,0.817698 2.459025,2.452016 4.593897,3.270203 2.134872,0.818187 5.228293,0.818187 7.891466,0.818187 2.663174,0 4.896718,0 6.850794,-0.848561 1.954077,-0.84856 3.625405,-2.543882 5.015948,-3.351226 1.390543,-0.807344 2.499213,-0.72571 3.568511,-0.488937 1.069299,0.236772 2.099048,0.628629 3.129057,1.020586"
       id="path97" /><path
       style="fill:none;fill-opacity:1;stroke:url(#linearGradient112);stroke-width:0.3;stroke-linejoin:round;stroke-dasharray:none;stroke-opacity:1"
       d="m 58.335533,55.083436 c 0.908191,0 1.816381,0 2.837431,0.253136 1.02105,0.253137 2.154959,0.75941 4.01331,1.926384 1.858352,1.166975 4.441097,2.994617 6.838056,3.908475 2.39696,0.913857 4.607898,0.913857 6.504293,0.913857 1.896394,0 3.478019,0 5.492621,-0.857624 2.014602,-0.857623 4.461941,-2.572768 6.313027,-3.430391 1.851086,-0.857623 3.105726,-0.857623 4.360391,-0.857623"
       id="path98" /><path
       style="fill:none;fill-opacity:1;stroke:url(#linearGradient121);stroke-width:0.3;stroke-linejoin:round;stroke-dasharray:none;stroke-opacity:1"
       d="m 62.41158,72.190061 c 1.507649,0 3.015301,0 4.867583,-0.810215 1.852282,-0.810216 4.049196,-2.430646 5.895436,-3.240862 1.846241,-0.810215 3.341807,-0.810215 4.837375,-0.810215 1.495567,0 2.991135,0 4.210949,0.107604 1.219813,0.107604 2.163871,0.322812 3.737833,0.778394 1.573962,0.455583 3.777821,1.151539 5.298038,1.499517 1.520218,0.347979 2.356788,0.347979 3.193359,0.347979"
       id="path99" /><path
       style="fill:none;fill-opacity:1;stroke:url(#linearGradient125);stroke-width:0.3;stroke-linejoin:round;stroke-dasharray:none"
       d="m 65.315533,79.498186 c 1.584539,0 3.169082,0 4.525447,-0.957692 1.356366,-0.957692 2.484556,-2.873077 3.759593,-4.044236 1.275037,-1.171159 2.69692,-1.598092 4.380814,-1.811558 1.683893,-0.213466 3.629799,-0.213466 5.61598,0.371521 1.98618,0.584988 4.012633,1.754962 5.850336,2.560866 1.837702,0.805905 3.486655,1.247739 5.135607,1.689574"
       id="path100" /><path
       style="fill:none;fill-opacity:1;stroke:url(#linearGradient122);stroke-width:0.2;stroke-linejoin:round;stroke-dasharray:none;stroke-opacity:1"
       d="m 59.081489,75.932467 c 0.562257,0 1.124515,0 1.593692,-0.399834 0.469177,-0.399834 0.845273,-1.199501 2.186202,-1.755781 1.340929,-0.55628 3.646691,-0.869172 5.742882,-1.688263 2.096191,-0.819091 3.982813,-2.144381 5.523837,-2.813274 1.541024,-0.668894 2.73645,-0.68139 4.376317,-0.691712 1.639868,-0.01032 3.664663,-0.01824 6.040842,0.950619 2.376179,0.968855 4.771463,2.755846 6.243992,3.674923 1.472529,0.919077 1.795138,0.819628 2.126693,0.717421"
       id="path101" /><path
       style="fill:none;fill-opacity:1;stroke:url(#linearGradient123);stroke-width:0.2;stroke-linejoin:round;stroke-dasharray:none;stroke-opacity:1"
       d="m 62.390133,76.455655 c 1.024426,0 2.048851,0 3.51071,-0.821154 1.461859,-0.821155 3.361152,-2.463464 4.882581,-3.517813 1.52143,-1.054349 2.664998,-1.520738 4.661022,-1.79236 1.996025,-0.271622 4.844507,-0.348477 7.163589,-0.03161 2.319082,0.316861 4.108763,1.027439 5.561669,1.954448 1.452906,0.927009 2.569036,2.07045 3.606068,2.657248 1.037032,0.586799 1.994965,0.616955 2.931452,0.421632 0.936488,-0.195323 1.851532,-0.616128 2.76657,-1.03693"
       id="path102" /><path
       style="fill:none;fill-opacity:1;stroke:url(#linearGradient124);stroke-width:0.2;stroke-linejoin:round;stroke-dasharray:none;stroke-opacity:1"
       d="m 67.686231,77.198743 c 0.620747,0 1.241496,0 2.144191,-0.967428 0.902696,-0.967427 2.087339,-2.902282 3.525526,-3.86971 1.438186,-0.967427 3.129917,-0.967427 4.821648,-0.967427 1.69173,0 3.38346,0 5.017094,0.39692 1.633634,0.39692 3.20917,1.190759 4.672016,2.01017 1.462847,0.81941 2.813002,1.66439 4.274364,1.974462 1.461363,0.310073 3.033933,0.08524 4.353775,-0.02491 1.319841,-0.110143 2.386954,-0.105593 3.454069,-0.101043"
       id="path107" /><path
       style="fill:none;fill-opacity:1;stroke:url(#linearGradient120);stroke-width:0.1;stroke-linejoin:round;stroke-dasharray:none;stroke-opacity:1"
       d="m 65.646955,69.138347 c 0.775745,0 1.551491,0 2.854551,-0.528384 1.30306,-0.528385 3.133363,-1.585111 4.837479,-2.113485 1.704115,-0.528374 3.281942,-0.528374 5.478339,-0.528374 2.196396,0 5.011216,0 7.520891,0 2.509674,0 4.714061,0 5.986976,0.1707 1.272915,0.170701 1.614304,0.512088 1.941353,0.682785 0.32705,0.170696 0.639745,0.170696 0.952446,0.170696"
       id="path108" /><path
       style="fill:none;fill-opacity:1;stroke:url(#linearGradient119);stroke-width:0.2;stroke-linejoin:round;stroke-dasharray:none;stroke-opacity:1"
       d="m 57.575478,59.194609 c 0.441392,0 0.882785,0 1.948195,0.968714 1.065409,0.968715 2.754733,2.906024 5.385332,3.874738 2.6306,0.968714 6.202159,0.968714 8.990048,0.968714 2.787888,0 4.791778,0 6.957024,0 2.165246,0 4.491621,0 5.903347,-0.161192 1.411725,-0.161192 1.908713,-0.483573 2.405699,-0.805952 0.496985,-0.322379 0.993967,-0.644755 1.490948,-1.14737 0.496981,-0.502614 0.993961,-1.185466 1.490944,-1.526893 0.496982,-0.341427 0.993962,-0.341427 1.490946,-0.341427"
       id="path109" /><circle
       style="fill:#308721;fill-opacity:1;stroke:none;stroke-width:0.243018;stroke-linejoin:round"
       id="circle13-0"
       cx="55.039791"
       cy="73.093773"
       r="0.40774131" /><circle
       style="fill:#308721;fill-opacity:1;stroke:none;stroke-width:0.243018;stroke-linejoin:round"
       id="circle13-1"
       cx="57.950211"
       cy="68.860435"
       r="0.40774131" /><circle
       style="fill:#308721;fill-opacity:1;stroke:none;stroke-width:0.243018;stroke-linejoin:round"
       id="circle13-2"
       cx="58.553925"
       cy="79.657654"
       r="0.40774131" /><circle
       style="fill:#308721;fill-opacity:1;stroke:none;stroke-width:0.243018;stroke-linejoin:round"
       id="circle13-7"
       cx="62.097534"
       cy="54.526016"
       r="0.40774131" /><circle
       style="fill:#308721;fill-opacity:1;stroke:none;stroke-width:0.919333;stroke-linejoin:round"
       id="circle3"
       cx="57.934334"
       cy="55.040379"
       r="1.5424794" /><circle
       style="fill:#308721;fill-opacity:1;stroke:none;stroke-width:0.919333;stroke-linejoin:round"
       id="circle4"
       cx="64.005234"
       cy="79.46431"
       r="1.5424794" /><circle
       style="fill:#308721;fill-opacity:1;stroke:none;stroke-width:0.919333;stroke-linejoin:round"
       id="circle5"
       cx="61.592987"
       cy="58.933102"
       r="1.5424794" /><circle
       style="fill:#308721;fill-opacity:1;stroke:none;stroke-width:0.919333;stroke-linejoin:round"
       id="circle7"
       cx="61.536644"
       cy="72.181183"
       r="1.5424794" /><circle
       style="fill:#308721;fill-opacity:1;stroke:none;stroke-width:0.556803;stroke-linejoin:round"
       id="circle8"
       cx="62.002869"
       cy="76.501625"
       r="0.93421787" /><circle
       style="fill:#308721;fill-opacity:1;stroke:none;stroke-width:0.556803;stroke-linejoin:round"
       id="circle8-5"
       cx="67.121933"
       cy="77.542076"
       r="0.93421787" /><circle
       style="fill:#308721;fill-opacity:1;stroke:none;stroke-width:0.556803;stroke-linejoin:round"
       id="circle9"
       cx="65.072479"
       cy="68.951149"
       r="0.93421787" /><circle
       style="fill:#308721;fill-opacity:1;stroke:none;stroke-width:0.556803;stroke-linejoin:round"
       id="circle10"
       cx="57.066402"
       cy="59.145161"
       r="0.93421787" /><circle
       style="fill:#308721;fill-opacity:1;stroke:none;stroke-width:0.243018;stroke-linejoin:round"
       id="circle11"
       cx="53.424679"
       cy="58.43837"
       r="0.40774131" /><circle
       style="fill:#308721;fill-opacity:1;stroke:none;stroke-width:0.243018;stroke-linejoin:round"
       id="circle12"
       cx="59.674126"
       cy="61.614864"
       r="0.40774131" /><circle
       style="fill:#308721;fill-opacity:1;stroke:none;stroke-width:0.243018;stroke-linejoin:round"
       id="circle13"
       cx="65.45063"
       cy="74.312675"
       r="0.40774131" /><circle
       style="fill:#308721;fill-opacity:1;stroke:none;stroke-width:0.243018;stroke-linejoin:round"
       id="circle13-1-2"
       cx="67.653786"
       cy="81.248932"
       r="0.40774131" /><circle
       style="fill:#308721;fill-opacity:1;stroke:none;stroke-width:0.243018;stroke-linejoin:round"
       id="circle13-1-3"
       cx="61.568375"
       cy="81.778091"
       r="0.40774131" /><circle
       style="fill:#308721;fill-opacity:1;stroke:none;stroke-width:0.243018;stroke-linejoin:round"
       id="circle13-1-9"
       cx="66.860039"
       cy="65.638512"
       r="0.40774131" /><circle
       style="fill:#308721;fill-opacity:1;stroke:none;stroke-width:0.243018;stroke-linejoin:round"
       id="circle13-1-4"
       cx="52.148224"
       cy="80.667725"
       r="0.40774131" /><circle
       style="fill:#308721;fill-opacity:1;stroke:none;stroke-width:0.556803;stroke-linejoin:round"
       id="circle8-1"
       cx="58.390682"
       cy="75.954575"
       r="0.93421787" /><path
       style="fill:none;fill-opacity:1;stroke:url(#linearGradient202);stroke-width:0.3;stroke-linejoin:round;stroke-dasharray:none;stroke-opacity:1"
       d="m 96.305356,57.094611 c 2.262478,0 4.524964,0 6.749604,1.080509 2.22465,1.080509 4.41131,3.241375 6.29351,4.32188 1.88219,1.080505 3.45972,1.080505 5.06208,0.970333 1.60237,-0.110171 3.22957,-0.330513 5.77518,-0.509923 2.54561,-0.17941 6.00947,-0.317876 8.03237,-0.146566 2.02291,0.17131 2.60481,0.652398 3.18671,1.133488"
       id="path130" /><path
       style="fill:none;fill-opacity:1;stroke:url(#linearGradient203);stroke-width:0.3;stroke-linejoin:round;stroke-dasharray:none;stroke-opacity:1"
       d="m 98.883781,60.925365 c 1.584699,0 3.169389,0 5.178829,0.68759 2.00943,0.68759 4.44346,2.062684 6.74315,2.741797 2.29969,0.679114 4.46475,0.662158 7.66567,0.174883 3.20093,-0.487275 7.43729,-1.444801 10.26143,-1.004399 2.82414,0.440402 4.23572,2.278721 5.64734,4.117084"
       id="path131" /><path
       style="fill:none;fill-opacity:1;stroke:url(#linearGradient204);stroke-width:0.1;stroke-linejoin:round;stroke-dasharray:none;stroke-opacity:1"
       d="m 93.948159,61.297623 c 1.481346,0.682642 2.962692,1.365284 5.322667,2.075352 2.359974,0.710068 5.598384,1.447518 9.169554,1.862911 3.57117,0.415392 7.47467,0.508674 10.23601,0.280002 2.76135,-0.228672 4.38029,-0.779282 5.72082,-0.961213 1.34053,-0.181932 2.40261,0.0048 3.46471,0.19158"
       id="path132" /><path
       style="fill:none;fill-opacity:1;stroke:url(#linearGradient205);stroke-width:0.1;stroke-linejoin:round;stroke-dasharray:none;stroke-opacity:1"
       d="m 96.49032,67.259654 c 1.75617,0 3.51234,0 5.61791,-0.135331 2.10558,-0.135331 4.5604,-0.405976 7.62556,-0.541307 3.06515,-0.135331 6.74024,-0.135331 9.98048,-0.199187 3.24024,-0.06386 6.04526,-0.191564 8.4347,-0.571385 2.38944,-0.379822 4.36314,-1.011727 6.33689,-1.643647"
       id="path133" /><path
       style="fill:none;fill-opacity:1;stroke:url(#linearGradient206);stroke-width:0.3;stroke-linejoin:round;stroke-dasharray:none;stroke-opacity:1"
       d="m 96.131932,70.590798 c 1.520441,0 3.040885,0 5.214008,-0.609876 2.17313,-0.609876 4.99878,-1.829559 8.08008,-2.439436 3.0813,-0.609878 6.41789,-0.609878 8.99807,-0.313146 2.58018,0.296732 4.40369,0.890174 5.88658,1.186901 1.48288,0.296727 2.62506,0.296727 3.76726,0.296727"
       id="path134" /><path
       style="fill:none;fill-opacity:1;stroke:url(#linearGradient207);stroke-width:0.1;stroke-linejoin:round;stroke-dasharray:none;stroke-opacity:1"
       d="m 93.974268,74.105721 c 0.524356,0 1.048713,0 1.642291,-0.372503 0.593578,-0.372502 1.256352,-1.117476 3.274087,-2.048457 2.017734,-0.930982 5.390184,-2.047879 7.476294,-2.731032 2.08611,-0.683153 2.8856,-0.93247 5.02023,-1.057137 2.13463,-0.124666 5.60412,-0.124666 8.4601,0.318773 2.85597,0.44344 5.09811,1.330283 7.00069,1.439221 1.90258,0.108937 3.46549,-0.560025 5.02843,-1.229"
       id="path135" /><path
       style="fill:none;fill-opacity:1;stroke:url(#linearGradient208);stroke-width:0.1;stroke-linejoin:round;stroke-dasharray:none;stroke-opacity:1"
       d="m 98.454614,74.349067 c 0.877032,0 1.754066,0 3.276406,-0.956409 1.52234,-0.956408 3.68987,-2.869115 6.9722,-3.825523 3.28233,-0.956409 7.67907,-0.956409 11.10169,-0.381783 3.42262,0.574627 5.87074,1.723829 8.31892,2.873058"
       id="path136" /><path
       style="fill:none;fill-opacity:1;stroke:url(#linearGradient209);stroke-width:0.1;stroke-linejoin:round;stroke-dasharray:none;stroke-opacity:1"
       d="m 101.06959,76.001276 c 0.91192,0 1.82383,0 2.9653,-1.021592 1.14146,-1.021592 2.5124,-3.064651 5.09905,-4.202339 2.58666,-1.137688 6.38871,-1.369864 9.36452,-0.769424 2.97581,0.60044 5.12505,2.033454 7.84445,2.582233 2.71941,0.54878 6.00881,0.213313 9.29827,-0.122161"
       id="path137" /><path
       style="fill:none;fill-opacity:1;stroke:url(#linearGradient215);stroke-width:0.3;stroke-linejoin:round;stroke-dasharray:none;stroke-opacity:1"
       d="m 97.020456,77.869499 c 1.661728,0 3.323454,0 5.412154,-1.085597 2.08871,-1.085597 4.60423,-3.256657 7.5974,-4.342254 2.99317,-1.085597 6.46363,-1.085597 9.63272,-0.48366 3.16909,0.601936 6.03645,1.805742 8.04539,1.823154 2.00894,0.01741 3.15925,-1.151595 4.30958,-2.320627"
       id="path138" /><circle
       style="fill:#7e4799;fill-opacity:1;stroke:none;stroke-width:0.243018;stroke-linejoin:round"
       id="circle13-0-2"
       cx="90.851456"
       cy="71.54187"
       r="0.40774131" /><circle
       style="fill:#7e4799;fill-opacity:1;stroke:none;stroke-width:0.243018;stroke-linejoin:round"
       id="circle13-1-0"
       cx="91.934761"
       cy="67.008354"
       r="0.40774131" /><circle
       style="fill:#7e4799;fill-opacity:1;stroke:none;stroke-width:0.243018;stroke-linejoin:round"
       id="circle13-2-6"
       cx="92.009308"
       cy="77.805573"
       r="0.40774131" /><circle
       style="fill:#7e4799;fill-opacity:1;stroke:none;stroke-width:0.243018;stroke-linejoin:round"
       id="circle13-7-1"
       cx="101.47807"
       cy="54.211987"
       r="0.40774131" /><circle
       style="fill:#7e4799;fill-opacity:1;stroke:none;stroke-width:0.919333;stroke-linejoin:round"
       id="circle3-5"
       cx="95.623055"
       cy="56.89246"
       r="1.5424794" /><circle
       style="fill:#7e4799;fill-opacity:1;stroke:none;stroke-width:0.919333;stroke-linejoin:round"
       id="circle4-5"
       cx="95.873116"
       cy="77.612228"
       r="1.5424794" /><circle
       style="fill:#7e4799;fill-opacity:1;stroke:none;stroke-width:0.919333;stroke-linejoin:round"
       id="circle5-4"
       cx="97.694206"
       cy="60.785183"
       r="1.5424794" /><circle
       style="fill:#7e4799;fill-opacity:1;stroke:none;stroke-width:0.919333;stroke-linejoin:round"
       id="circle7-7"
       cx="95.521194"
       cy="70.329102"
       r="1.5424794" /><circle
       style="fill:#7e4799;fill-opacity:1;stroke:none;stroke-width:0.556803;stroke-linejoin:round"
       id="circle8-6"
       cx="97.938118"
       cy="74.128998"
       r="0.93421787" /><circle
       style="fill:#7e4799;fill-opacity:1;stroke:none;stroke-width:0.556803;stroke-linejoin:round"
       id="circle8-5-5"
       cx="100.57732"
       cy="75.689995"
       r="0.93421787" /><circle
       style="fill:#7e4799;fill-opacity:1;stroke:none;stroke-width:0.556803;stroke-linejoin:round"
       id="circle9-6"
       cx="95.882027"
       cy="67.099068"
       r="0.93421787" /><circle
       style="fill:#7e4799;fill-opacity:1;stroke:none;stroke-width:0.556803;stroke-linejoin:round"
       id="circle10-9"
       cx="93.696793"
       cy="60.997242"
       r="0.93421787" /><circle
       style="fill:#7e4799;fill-opacity:1;stroke:none;stroke-width:0.243018;stroke-linejoin:round"
       id="circle11-3"
       cx="89.364952"
       cy="61.450207"
       r="0.40774131" /><circle
       style="fill:#7e4799;fill-opacity:1;stroke:none;stroke-width:0.243018;stroke-linejoin:round"
       id="circle12-7"
       cx="96.259491"
       cy="63.196209"
       r="0.40774131" /><circle
       style="fill:#7e4799;fill-opacity:1;stroke:none;stroke-width:0.243018;stroke-linejoin:round"
       id="circle13-4"
       cx="103.13931"
       cy="72.460594"
       r="0.40774131" /><circle
       style="fill:#7e4799;fill-opacity:1;stroke:none;stroke-width:0.243018;stroke-linejoin:round"
       id="circle13-1-2-5"
       cx="101.10918"
       cy="79.396851"
       r="0.40774131" /><circle
       style="fill:#7e4799;fill-opacity:1;stroke:none;stroke-width:0.243018;stroke-linejoin:round"
       id="circle13-1-2-5-7"
       cx="98.568153"
       cy="65.495239"
       r="0.40774131" /><circle
       style="fill:#7e4799;fill-opacity:1;stroke:none;stroke-width:0.243018;stroke-linejoin:round"
       id="circle13-1-2-5-1"
       cx="98.832733"
       cy="69.199409"
       r="0.40774131" /><circle
       style="fill:#7e4799;fill-opacity:1;stroke:none;stroke-width:0.243018;stroke-linejoin:round"
       id="circle13-1-2-5-5"
       cx="92.482735"
       cy="63.907742"
       r="0.40774131" /><circle
       style="fill:#7e4799;fill-opacity:1;stroke:none;stroke-width:0.243018;stroke-linejoin:round"
       id="circle13-1-2-5-0"
       cx="91.4244"
       cy="80.576492"
       r="0.40774131" /><circle
       style="fill:#7e4799;fill-opacity:1;stroke:none;stroke-width:0.243018;stroke-linejoin:round"
       id="circle13-1-2-5-71"
       cx="95.657738"
       cy="74.226494"
       r="0.40774131" /><circle
       style="fill:#7e4799;fill-opacity:1;stroke:none;stroke-width:0.243018;stroke-linejoin:round"
       id="circle13-1-2-5-77"
       cx="92.747322"
       cy="57.822323"
       r="0.40774131" /><circle
       style="fill:#7e4799;fill-opacity:1;stroke:none;stroke-width:0.243018;stroke-linejoin:round"
       id="circle13-1-2-5-6"
       cx="93.276489"
       cy="52.795242"
       r="0.40774131" /><circle
       style="fill:#7e4799;fill-opacity:1;stroke:none;stroke-width:0.243018;stroke-linejoin:round"
       id="circle13-1-3-2"
       cx="95.023758"
       cy="79.92601"
       r="0.40774131" /><circle
       style="fill:#7e4799;fill-opacity:1;stroke:none;stroke-width:0.243018;stroke-linejoin:round"
       id="circle13-1-9-5"
       cx="100.31544"
       cy="63.786427"
       r="0.40774131" /><circle
       style="fill:#7e4799;fill-opacity:1;stroke:none;stroke-width:0.243018;stroke-linejoin:round"
       id="circle13-1-4-4"
       cx="88.77861"
       cy="77.757309"
       r="0.40774131" /><circle
       style="fill:#7e4799;fill-opacity:1;stroke:none;stroke-width:0.556803;stroke-linejoin:round"
       id="circle8-1-7"
       cx="93.433571"
       cy="74.102493"
       r="0.93421787" /><circle
       style="fill:#b8382e;fill-opacity:1;stroke:none;stroke-width:0.243018;stroke-linejoin:round"
       id="circle53"
       cx="126.06821"
       cy="65.725159"
       r="0.40774131" /><circle
       style="fill:#b8382e;fill-opacity:1;stroke:none;stroke-width:0.243018;stroke-linejoin:round"
       id="circle54"
       cx="128.7205"
       cy="60.889355"
       r="0.40774131" /><circle
       style="fill:#b8382e;fill-opacity:1;stroke:none;stroke-width:0.243018;stroke-linejoin:round"
       id="circle55"
       cx="127.5303"
       cy="77.906593"
       r="0.40774131" /><circle
       style="fill:#b8382e;fill-opacity:1;stroke:none;stroke-width:0.243018;stroke-linejoin:round"
       id="circle55-9"
       cx="137.99107"
       cy="78.988991"
       r="0.40774131" /><circle
       style="fill:#b8382e;fill-opacity:1;stroke:none;stroke-width:0.243018;stroke-linejoin:round"
       id="circle55-2"
       cx="124.49732"
       cy="54.38274"
       r="0.40774131" /><circle
       style="fill:#b8382e;fill-opacity:1;stroke:none;stroke-width:0.243018;stroke-linejoin:round"
       id="circle55-0"
       cx="142.75357"
       cy="69.993156"
       r="0.40774131" /><circle
       style="fill:#b8382e;fill-opacity:1;stroke:none;stroke-width:0.243018;stroke-linejoin:round"
       id="circle55-09"
       cx="134.81607"
       cy="66.024406"
       r="0.40774131" /><circle
       style="fill:#b8382e;fill-opacity:1;stroke:none;stroke-width:0.243018;stroke-linejoin:round"
       id="circle55-5"
       cx="140.37231"
       cy="55.176491"
       r="0.40774131" /><circle
       style="fill:#b8382e;fill-opacity:1;stroke:none;stroke-width:0.243018;stroke-linejoin:round"
       id="circle55-59"
       cx="130.31815"
       cy="62.584824"
       r="0.40774131" /><circle
       style="fill:#b8382e;fill-opacity:1;stroke:none;stroke-width:0.243018;stroke-linejoin:round"
       id="circle55-1"
       cx="137.72649"
       cy="69.993156"
       r="0.40774131" /><circle
       style="fill:#b8382e;fill-opacity:1;stroke:none;stroke-width:0.243018;stroke-linejoin:round"
       id="circle56"
       cx="133.44844"
       cy="57.777138"
       r="0.40774131" /><circle
       style="fill:#b8382e;fill-opacity:1;stroke:none;stroke-width:0.919333;stroke-linejoin:round"
       id="circle57"
       cx="132.12215"
       cy="64.902718"
       r="1.5424794" /><circle
       style="fill:#b8382e;fill-opacity:1;stroke:none;stroke-width:0.919333;stroke-linejoin:round"
       id="circle58"
       cx="132.38782"
       cy="71.037361"
       r="1.5424794" /><circle
       style="fill:#b8382e;fill-opacity:1;stroke:none;stroke-width:0.919333;stroke-linejoin:round"
       id="circle59"
       cx="135.20096"
       cy="68.531769"
       r="1.5424794" /><circle
       style="fill:#b8382e;fill-opacity:1;stroke:none;stroke-width:0.919333;stroke-linejoin:round"
       id="circle60"
       cx="128.8461"
       cy="68.606186"
       r="1.5424794" /><circle
       style="fill:#b8382e;fill-opacity:1;stroke:none;stroke-width:0.556803;stroke-linejoin:round"
       id="circle61"
       cx="128.41368"
       cy="64.971413"
       r="0.93421787" /><circle
       style="fill:#b8382e;fill-opacity:1;stroke:none;stroke-width:0.556803;stroke-linejoin:round"
       id="circle62"
       cx="136.03368"
       cy="72.290131"
       r="0.93421787" /><circle
       style="fill:#b8382e;fill-opacity:1;stroke:none;stroke-width:0.556803;stroke-linejoin:round"
       id="circle63"
       cx="135.04253"
       cy="63.699207"
       r="0.93421787" /><circle
       style="fill:#b8382e;fill-opacity:1;stroke:none;stroke-width:0.556803;stroke-linejoin:round"
       id="circle64"
       cx="128.72966"
       cy="72.284538"
       r="0.93421787" /><circle
       style="fill:#b8382e;fill-opacity:1;stroke:none;stroke-width:0.243018;stroke-linejoin:round"
       id="circle65"
       cx="138.74052"
       cy="63.240597"
       r="0.40774131" /><circle
       style="fill:#b8382e;fill-opacity:1;stroke:none;stroke-width:0.243018;stroke-linejoin:round"
       id="circle66"
       cx="132.29004"
       cy="61.654583"
       r="0.40774131" /><circle
       style="fill:#b8382e;fill-opacity:1;stroke:none;stroke-width:0.243018;stroke-linejoin:round"
       id="circle67"
       cx="138.59566"
       cy="68.002396"
       r="0.40774131" /><circle
       style="fill:#b8382e;fill-opacity:1;stroke:none;stroke-width:0.243018;stroke-linejoin:round"
       id="circle68"
       cx="138.68217"
       cy="73.351151"
       r="0.40774131" /><circle
       style="fill:#b8382e;fill-opacity:1;stroke:none;stroke-width:0.243018;stroke-linejoin:round"
       id="circle69"
       cx="131.53844"
       cy="74.409477"
       r="0.40774131" /><circle
       style="fill:#b8382e;fill-opacity:1;stroke:none;stroke-width:0.243018;stroke-linejoin:round"
       id="circle70"
       cx="134.34811"
       cy="75.271194"
       r="0.40774131" /><circle
       style="fill:#b8382e;fill-opacity:1;stroke:none;stroke-width:0.243018;stroke-linejoin:round"
       id="circle71"
       cx="125.2933"
       cy="71.182442"
       r="0.40774131" /><circle
       style="fill:#b8382e;fill-opacity:1;stroke:none;stroke-width:0.556803;stroke-linejoin:round"
       id="circle72"
       cx="132.04538"
       cy="68.164841"
       r="0.93421787" /><circle
       style="fill:#308721;fill-opacity:1;stroke:none;stroke-width:0.243018;stroke-linejoin:round"
       id="circle13-0-0"
       cx="54.647324"
       cy="55.441074"
       r="0.40774131" /><circle
       style="fill:#308721;fill-opacity:1;stroke:none;stroke-width:0.243018;stroke-linejoin:round"
       id="circle13-0-8"
       cx="50.41399"
       cy="54.647324"
       r="0.40774131" /><circle
       style="fill:#308721;fill-opacity:1;stroke:none;stroke-width:0.243018;stroke-linejoin:round"
       id="circle13-0-1"
       cx="57.028576"
       cy="61.261909"
       r="0.40774131" /><circle
       style="fill:#308721;fill-opacity:1;stroke:none;stroke-width:0.243018;stroke-linejoin:round"
       id="circle13-0-06"
       cx="64.701492"
       cy="52.795242"
       r="0.40774131" /><circle
       style="fill:#308721;fill-opacity:1;stroke:none;stroke-width:0.243018;stroke-linejoin:round"
       id="circle13-0-6"
       cx="60.203575"
       cy="74.755661"
       r="0.40774131" /><circle
       style="fill:#308721;fill-opacity:1;stroke:none;stroke-width:0.243018;stroke-linejoin:round"
       id="circle13-0-5"
       cx="65.230659"
       cy="82.957741"
       r="0.40774131" /><circle
       style="fill:#308721;fill-opacity:1;stroke:none;stroke-width:0.243018;stroke-linejoin:round"
       id="circle13-0-7"
       cx="61.261909"
       cy="79.253571"
       r="0.40774131" /><path
       style="fill:none;stroke:url(#linearGradient36);stroke-width:0.1;stroke-linejoin:round"
       d="m 62.099007,54.613942 c 0.574373,0 1.148746,0 2.35597,0.531184 1.207224,0.531184 3.047226,1.59351 4.455345,2.612783 1.408119,1.019272 2.384281,1.995434 3.548424,2.664672 1.164143,0.669237 2.516195,1.031519 3.680279,1.212663 1.164085,0.181145 2.140136,0.181145 3.126181,0.0477 0.986045,-0.133441 1.982027,-0.400315 4.156625,-1.742377 2.174597,-1.342062 5.491936,-3.733459 8.681747,-4.890279 3.189811,-1.156821 6.133269,-1.029561 9.076792,-0.902299"
       id="path1" /><path
       style="fill:none;stroke:url(#linearGradient29);stroke-width:0.1;stroke-linejoin:round"
       d="m 64.834084,52.904336 c 0.438507,0 0.877014,0 1.850838,0.854498 0.973824,0.854499 2.482902,2.563424 3.581524,3.783112 1.098621,1.219689 1.786724,1.950073 2.701293,2.524505 0.914569,0.574431 2.055539,0.992875 3.069131,1.208844 1.013592,0.21597 1.899748,0.229456 2.957687,0.03277 1.057939,-0.196683 2.287592,-0.603519 3.677519,-2.068665 1.389926,-1.465146 2.940101,-3.988593 4.725294,-5.239204 1.785192,-1.250612 3.805407,-1.228388 5.825613,-1.206165"
       id="path2" /><path
       style="fill:none;stroke:url(#linearGradient37);stroke-width:0.1;stroke-linejoin:round"
       d="m 54.78781,55.596083 c 2.738853,-0.09418 5.477703,-0.188366 7.374901,-0.01636 1.897199,0.172002 2.952704,0.610174 4.443343,1.499832 1.490639,0.889658 3.416315,2.230739 4.810057,3.060466 1.393742,0.829726 2.255473,1.148056 3.044686,1.34865 0.789213,0.200594 1.505855,0.283442 2.241572,0.330609 0.735716,0.04717 1.490461,0.05865 2.15726,0.02662 0.666799,-0.03203 1.245612,-0.107577 2.866435,-0.729631 1.620823,-0.622054 4.283537,-1.790568 6.27823,-2.429724 1.994694,-0.639156 3.321259,-0.748927 4.647851,-0.8587"
       id="path3" /><path
       style="fill:none;stroke:url(#linearGradient39);stroke-width:0.1;stroke-linejoin:round;stroke-dasharray:none"
       d="m 59.827318,61.789394 c 0.153527,0 0.307054,0 0.935288,0.412355 0.628235,0.412354 1.731134,1.237032 3.337255,1.878161 1.60612,0.641128 3.715357,1.098676 5.913338,1.292027 2.197981,0.193352 4.484574,0.122501 7.542644,0.06741 3.05807,-0.05509 6.887416,-0.09441 9.147078,-0.401247 2.259662,-0.30684 2.949516,-0.881164 3.544709,-1.254016 0.595193,-0.372851 1.095653,-0.544185 1.746914,-0.635237 0.65126,-0.09105 1.453242,-0.101812 2.145438,-0.09591 0.692197,0.0059 1.274532,0.02847 1.85688,0.05103"
       id="path4" /><path
       style="fill:none;stroke:url(#linearGradient40);stroke-width:0.1;stroke-linejoin:round"
       d="m 66.968941,65.684399 c 0.641239,0 1.282477,0 2.768987,0.01815 1.48651,0.01815 3.818198,0.05445 6.77652,0.0035 2.958322,-0.05093 6.543017,-0.189094 8.724183,-0.299877 2.181165,-0.110783 2.958535,-0.194176 3.707797,-0.452527 0.749263,-0.258351 1.470358,-0.691644 2.007791,-0.902487 0.537433,-0.210844 0.89119,-0.19923 1.24495,-0.187617"
       id="path5" /><path
       style="fill:none;stroke:url(#linearGradient45);stroke-width:0.1;stroke-linejoin:round"
       d="m 61.728452,81.917277 c 0.661165,0 1.32233,0 2.77611,-0.407161 1.453779,-0.407162 3.700083,-1.221452 5.630849,-2.494159 1.930765,-1.272707 3.54588,-3.003745 4.779423,-4.01701 1.233542,-1.013265 2.085448,-1.308712 3.21922,-1.453681 1.133773,-0.14497 2.549341,-0.139456 4.034194,0.145292 1.484854,0.284749 3.038903,0.848711 4.38477,1.521113 1.345868,0.672402 2.483479,1.453201 3.343109,1.90053 0.85963,0.447328 1.441229,0.561164 2.022842,0.675002"
       id="path6" /><path
       style="fill:none;stroke:url(#linearGradient46);stroke-width:0.1;stroke-linejoin:round"
       d="m 67.752425,81.327566 c 0.730382,0 1.460764,0 2.377516,-0.66406 0.916751,-0.66406 2.01983,-1.992127 3.072903,-3.127336 1.053074,-1.135208 2.05608,-2.077496 3.046147,-2.683533 0.990066,-0.606037 1.967136,-0.875795 2.990098,-0.967321 1.022963,-0.09153 2.091755,-0.0048 3.343317,0.637624 1.251562,0.642444 2.685811,1.840574 3.734735,2.471844 1.048924,0.631271 1.712468,0.695654 2.376023,0.760039"
       id="path7" /><path
       style="fill:none;stroke:url(#linearGradient47);stroke-width:0.1;stroke-linejoin:round"
       d="m 65.44769,83.088204 c 0.478012,0 0.956021,0 1.635157,-0.08114 0.679137,-0.08114 1.559364,-0.243426 2.850977,-1.345901 1.291612,-1.102475 2.994528,-3.145058 4.297909,-4.491965 1.303381,-1.346906 2.207161,-1.998072 3.182719,-2.380506 0.975559,-0.382434 2.022838,-0.496121 2.982021,-0.399472 0.959184,0.09665 1.830218,0.403623 2.981731,1.248278 1.151512,0.844656 2.583428,2.226934 3.536024,3.110039 0.952596,0.883105 1.425826,1.266995 2.089558,1.501058 0.663733,0.234062 1.517923,0.318284 2.372131,0.402507"
       id="path8" /><path
       style="fill:none;stroke:url(#linearGradient44);stroke-width:0.1;stroke-linejoin:round"
       d="m 61.380689,79.310547 c 0.622858,0 1.245717,0 2.460479,-0.575909 1.214762,-0.575909 3.021357,-1.727681 4.710562,-3.081663 1.689204,-1.353983 3.260919,-2.91009 4.4633,-3.736998 1.202381,-0.826907 2.03536,-0.924578 3.428177,-0.990764 1.392817,-0.06619 3.345375,-0.100881 4.985658,0.06385 1.640283,0.164732 2.968201,0.528879 4.230462,1.045803 1.262261,0.516925 2.458791,1.186595 3.3276,1.735045 0.868809,0.54845 1.409853,0.975652 2.073119,1.263886 0.663265,0.288235 1.448742,0.437495 2.235028,0.519764 0.786285,0.08227 1.573381,0.09755 2.212596,0.10519 0.639214,0.0076 1.130545,0.0076 1.85144,-0.111087 0.720895,-0.118727 1.671352,-0.35618 2.65717,-0.875566 0.98581,-0.519386 2.00698,-1.320703 3.02815,-2.122021"
       id="path9" /><path
       style="fill:none;stroke:url(#linearGradient43);stroke-width:0.1;stroke-linejoin:round"
       d="m 65.635573,74.376679 c 0.336145,0 0.67229,0 1.421988,-0.418473 0.749699,-0.418474 1.912902,-1.255387 3.099273,-1.979817 1.18637,-0.724431 2.395835,-1.336338 3.522683,-1.741594 1.126848,-0.405256 2.171012,-0.603842 3.584342,-0.70098 1.413331,-0.09714 3.195731,-0.09283 4.688392,0.105463 1.492661,0.198289 2.695496,0.590537 3.769618,1.048214 1.074121,0.457677 2.019467,0.980755 3.04515,1.607099 1.025683,0.626344 2.13164,1.355914 3.271724,1.70636 1.140084,0.350446 2.314226,0.321753 3.488391,0.29306"
       id="path10" /><path
       style="fill:none;stroke:url(#linearGradient42);stroke-width:0.1;stroke-linejoin:round"
       d="m 55.270259,73.224289 c 2.895841,-0.164139 5.791682,-0.328277 7.975668,-0.581028 2.183985,-0.252751 3.656061,-0.5941 5.37585,-1.32296 1.719789,-0.72886 3.687186,-1.845178 5.308089,-2.463336 1.620904,-0.618158 2.895227,-0.73813 4.344686,-0.765143 1.449459,-0.02701 3.073963,0.03893 4.803805,0.43085 1.729842,0.391916 3.564918,1.109773 4.720455,1.647022 1.155537,0.53725 1.631478,0.893862 2.029522,1.098715 0.398044,0.204852 0.71817,0.257935 1.0383,0.311018"
       id="path11" /><path
       style="fill:none;stroke:url(#linearGradient41);stroke-width:0.1;stroke-linejoin:round"
       d="m 58.000031,68.897766 c 2.534502,0.519986 5.069007,1.039974 7.112096,1.018293 2.043088,-0.02168 3.5947,-0.585006 5.226136,-1.219614 1.631435,-0.634609 3.342596,-1.340461 4.781737,-1.702271 1.439142,-0.36181 2.606184,-0.379563 4.23147,-0.376176 1.625287,0.0034 3.708709,0.02791 5.861787,0.08805 2.153079,0.06014 4.375685,0.155884 6.598333,0.251631"
       id="path12" /><path
       style="fill:none;stroke:url(#linearGradient56);stroke-width:0.1;stroke-linejoin:round"
       d="m 92.941705,57.82965 c 2.093193,-0.01881 4.186386,-0.03762 6.204161,0.337379 2.017774,0.374998 3.960064,1.143779 5.620204,1.982805 1.66015,0.839026 3.03805,1.748243 4.02205,2.364726 0.984,0.616483 1.57404,0.940198 2.65598,1.131717 1.08193,0.191519 2.65569,0.250835 4.13133,0.182075 1.47563,-0.06876 2.85307,-0.265592 4.30905,-0.415469 1.45599,-0.149877 2.99045,-0.252793 4.57129,-0.314021 1.58084,-0.06123 3.20795,-0.08076 4.1805,-0.145072 0.97254,-0.06431 1.29046,-0.173383 1.60838,-0.282458"
       id="path14" /><path
       style="fill:none;stroke:url(#linearGradient58);stroke-width:0.1;stroke-linejoin:round"
       d="m 100.56323,63.832681 c 1.37614,0.228021 2.75226,0.456038 4.048,0.540557 1.29573,0.08452 2.51098,0.02553 3.82829,0.15721 1.31732,0.131676 2.73661,0.454004 4.53364,0.592517 1.79703,0.138512 3.97169,0.0932 5.9561,-0.10629 1.98441,-0.199494 3.77846,-0.553158 5.34477,-0.739142 1.56631,-0.185983 2.90479,-0.204276 4.62196,0.09764 1.71716,0.301911 3.8129,0.924001 5.90869,1.546105"
       id="path15" /><path
       style="fill:none;stroke:url(#linearGradient54);stroke-width:0.1;stroke-linejoin:round"
       d="m 101.62383,54.308353 c 1.34586,0.370047 2.6917,0.740089 4.04172,1.921925 1.35001,1.181837 2.70408,3.175341 3.72595,4.369317 1.02188,1.193976 1.71145,1.588287 2.76372,1.817887 1.05228,0.2296 2.46714,0.294462 3.74457,0.249746 1.27742,-0.04472 2.41732,-0.199007 4.09005,-0.5061 1.67273,-0.307092 3.87814,-0.766958 5.89779,-1.241802 2.01964,-0.474845 3.8533,-0.964618 5.07161,-1.503839 1.2183,-0.539222 1.82114,-1.127846 2.42399,-1.716483"
       id="path16" /><path
       style="fill:none;stroke:url(#linearGradient49);stroke-width:0.1;stroke-linejoin:round"
       d="m 93.340433,52.801642 c 0.419227,-0.03706 0.777134,-0.0687 2.836864,-0.113281 2.059731,-0.04458 5.027803,-0.08818 7.887093,1.705414 2.85928,1.793596 3.37864,3.342607 5.40033,5.460462 2.02169,2.117855 3.54505,2.306402 5.33804,2.337958 1.79299,0.03156 3.24882,-0.168964 4.63238,-1.087022 1.38356,-0.918058 2.69481,-2.553647 3.52123,-3.795955 0.82642,-1.242309 1.168,-2.091336 1.50959,-2.940364"
       id="path17" /><path
       style="fill:none;stroke:url(#linearGradient62);stroke-width:0.1;stroke-linejoin:round"
       d="m 92.644932,63.942547 c 0.844326,0.01041 1.688653,0.02083 2.684214,0.165423 0.995561,0.144597 2.14231,0.423366 3.831552,0.666768 1.689242,0.243402 3.920862,0.451423 5.830812,0.625499 1.90994,0.174076 3.49809,0.314196 5.28936,0.409728 1.79127,0.09553 3.78555,0.146469 5.54988,0.14922 1.76432,0.0028 3.2986,-0.04268 5.76533,-0.17856 2.46672,-0.135878 5.86573,-0.362191 7.9834,-0.386852 2.11768,-0.02466 2.95392,0.152329 4.01323,0.606146 1.05931,0.453817 2.34162,1.184427 3.20896,1.554497 0.86733,0.37007 1.31965,0.379584 1.77198,0.389097"
       id="path18" /><path
       style="fill:none;stroke:url(#linearGradient60);stroke-width:0.1;stroke-linejoin:round;stroke-dasharray:none"
       d="m 96.482539,63.197497 c 0.488841,0.01753 0.977673,0.03507 1.476351,0.219767 0.498677,0.1847 1.007166,0.536555 1.743183,0.792727 0.736017,0.256172 1.699517,0.416649 3.201457,0.614866 1.50193,0.198216 3.54221,0.434161 5.21677,0.591676 1.67456,0.157514 2.9833,0.23659 4.24211,0.286984 1.2588,0.05039 2.46759,0.0721 3.9548,0.04159 1.48722,-0.03051 3.25277,-0.11324 4.89307,-0.135494 1.6403,-0.02226 3.15526,0.01597 4.67026,0.05419"
       id="path19" /><path
       style="fill:none;stroke:url(#linearGradient64);stroke-width:0.1;stroke-linejoin:round"
       d="m 92.16337,67.001315 c 0.612833,0.02679 1.225669,0.05357 1.992444,0.17948 0.766774,0.125906 1.687452,0.350924 3.04814,0.49197 1.360687,0.141046 3.161296,0.198114 5.153846,0.0764 1.99255,-0.12171 4.17691,-0.422187 6.15282,-0.625017 1.97592,-0.202831 3.74325,-0.308002 5.67993,-0.357713 1.93668,-0.04971 4.04258,-0.04396 6.87162,0.226074 2.82904,0.270035 6.38103,0.804334 8.79091,1.358401 2.40989,0.554067 3.67753,1.127863 4.78654,1.407721 1.10902,0.279858 2.05935,0.265765 3.00969,0.251672"
       id="path20" /><path
       style="fill:none;stroke:url(#linearGradient38);stroke-width:0.1;stroke-linejoin:round"
       d="m 53.612999,58.506621 c 1.497521,0.01298 2.995041,0.02595 4.480065,0.303013 1.485025,0.27706 2.957492,0.818181 4.503503,1.649014 1.546011,0.830833 3.16547,1.951321 4.601583,2.643872 1.436113,0.69255 2.688798,0.95713 4.530416,1.117089 1.841618,0.15996 4.272046,0.215293 6.584178,0.23576 2.312133,0.02047 4.505836,0.0061 6.302872,-0.333449 1.797036,-0.339517 3.197276,-1.004108 4.752415,-1.373878 1.555138,-0.369769 3.265019,-0.444673 4.749131,-0.378558 1.484111,0.06612 2.742366,0.273242 3.771935,0.550127 1.02957,0.276885 1.733699,0.581657 2.542053,0.931541"
       id="path21" /><path
       style="fill:none;stroke:url(#linearGradient66);stroke-width:0.1;stroke-linejoin:round"
       d="m 91.019891,71.62226 c 1.4124,0.0176 2.824798,0.0352 4.098108,-0.04059 1.273309,-0.07579 2.407483,-0.244975 3.513838,-0.484837 1.106355,-0.239863 2.184823,-0.550391 3.427813,-0.952184 1.243,-0.401793 2.65044,-0.894824 3.78487,-1.268743 1.13443,-0.373919 1.9958,-0.628708 3.05351,-0.841681 1.05772,-0.212972 2.31171,-0.384116 3.70107,-0.455037 1.38936,-0.07092 2.91399,-0.04161 4.22254,0.03856 1.30854,0.08018 2.40093,0.211216 3.58623,0.413112 1.18531,0.201896 2.46346,0.474634 4.18716,0.757284 1.7237,0.282649 3.89284,0.575193 5.86251,1.137147 1.96968,0.561954 3.73977,1.393276 5.05228,2.001587 1.3125,0.608312 2.16735,0.993582 3.02221,1.378856"
       id="path22" /><path
       style="fill:none;stroke:url(#linearGradient68);stroke-width:0.1;stroke-linejoin:round"
       d="m 95.860869,74.317761 c 0.837409,-0.0073 1.67482,-0.01459 2.704081,-0.423891 1.029262,-0.409304 2.25033,-1.220589 3.89847,-2.11265 1.64814,-0.892062 3.72325,-1.864847 5.51144,-2.448721 1.78819,-0.583874 3.28935,-0.778805 5.06693,-0.85813 1.77757,-0.07932 3.83145,-0.04304 5.52393,0.112169 1.69248,0.155209 3.02348,0.429333 4.51272,0.80709 1.48925,0.377756 3.13666,0.859124 4.557,1.243563 1.42033,0.384439 2.61351,0.671929 3.69583,1.427423 1.08233,0.755494 2.0537,1.978929 3.02509,3.202388"
       id="path23" /><path
       style="fill:none;stroke:url(#linearGradient70);stroke-width:0.1;stroke-linejoin:round"
       d="m 103.29617,72.433319 c 0.85104,-0.488899 1.70209,-0.977804 2.75417,-1.420189 1.05209,-0.442384 2.30517,-0.838237 3.88499,-1.131569 1.57982,-0.293332 3.48627,-0.484125 5.23948,-0.496622 1.7532,-0.0125 3.35306,0.153303 4.62506,0.432233 1.27201,0.278929 2.2161,0.670969 3.05586,0.911085 0.83976,0.240117 1.57514,0.328298 2.31054,0.416481"
       id="path24" /><path
       style="fill:none;stroke:url(#linearGradient72);stroke-width:0.1;stroke-linejoin:round"
       d="m 92.168079,77.804184 c 2.10942,-0.06288 4.21884,-0.125765 6.000706,-0.414465 1.781866,-0.2887 3.236115,-0.803195 4.895845,-1.724354 1.65972,-0.921159 3.5248,-2.248912 4.96557,-3.140013 1.44077,-0.891102 2.45715,-1.345505 3.96412,-1.579607 1.50696,-0.234101 3.50442,-0.247891 5.24932,-0.07748 1.74489,0.170413 3.23714,0.525018 4.5896,0.900609 1.35246,0.37559 2.56507,0.772148 4.08572,1.050477 1.52065,0.278329 3.34926,0.438419 4.35219,0.697412 1.00293,0.258994 1.18013,0.616871 1.35734,0.974758"
       id="path25" /><path
       style="fill:none;stroke:url(#linearGradient73);stroke-width:0.1;stroke-linejoin:round"
       d="m 88.819335,77.875185 c 0.40522,0.130804 0.81043,0.261604 1.576924,0.434267 0.766494,0.172662 1.894213,0.387172 3.76665,0.41157 1.872437,0.0244 4.489465,-0.141316 6.344431,-0.369454 1.85496,-0.228137 2.94777,-0.518686 4.14085,-1.293369 1.19308,-0.774682 2.48636,-2.033441 3.70291,-2.888871 1.21655,-0.85543 2.3563,-1.307487 3.73964,-1.575107 1.38335,-0.267619 3.01021,-0.350793 4.40166,-0.317761 1.39146,0.03303 2.54744,0.182267 3.77502,0.429255 1.22758,0.246988 2.52668,0.591713 4.45347,1.137547 1.92678,0.545833 4.48113,1.292741 6.57271,1.946172 2.09159,0.653432 3.72031,1.213354 4.74722,1.721704 1.02692,0.50835 1.45198,0.965097 1.87706,1.421858"
       id="path26" /><path
       style="fill:none;stroke:url(#linearGradient74);stroke-width:0.1;stroke-linejoin:round"
       d="m 91.476268,80.669862 c 2.994234,-0.02601 5.988465,-0.05203 8.427818,-0.194004 2.439354,-0.141978 4.323764,-0.399912 5.862384,-1.383369 1.53861,-0.983457 2.73136,-2.692364 3.68933,-3.808005 0.95797,-1.115642 1.68112,-1.637967 2.75493,-1.94495 1.07382,-0.306983 2.49825,-0.398618 3.92015,-0.361209 1.4219,0.03741 2.84119,0.203855 4.4371,0.583311 1.59591,0.379457 3.36834,0.971897 4.54623,1.72929 1.17789,0.757393 1.76118,1.679691 2.34449,2.602009"
       id="path27" /></g></svg>
